<svg id="Layer_1" data-name="Layer 1" xmlns="http://www.w3.org/2000/svg" viewBox="0 0 85 85">
  <title>cisco</title>
  <g fill="#049fd9">
    <g>
      <rect x="24.04" y="49.72" width="3.73" height="14.77"/>
      <path d="M57.82,53.95a6.51,6.51,0,0,0-3.14-.79,3.94,3.94,0,0,0,0,7.88,6.58,6.58,0,0,0,3.14-.78v4a11.9,11.9,0,0,1-3.4.53c-4.19,0-7.87-2.89-7.87-7.65A7.53,7.53,0,0,1,54,49.49h.46a11.39,11.39,0,0,1,3.4.53Z"/>
      <path d="M18.92,53.95a6.47,6.47,0,0,0-3.13-.79,3.94,3.94,0,1,0,0,7.88,6.54,6.54,0,0,0,3.13-.78v4a11.82,11.82,0,0,1-3.4.53c-4.19,0-7.86-2.89-7.86-7.65a7.53,7.53,0,0,1,7.41-7.65h.45a11.35,11.35,0,0,1,3.4.53Z"/>
      <path d="M77.35,57.1a7.8,7.8,0,1,1-8-7.64h.15a7.58,7.58,0,0,1,7.81,7.35Q77.35,57,77.35,57.1Zm-7.81-3.88a3.89,3.89,0,1,0,3.86,3.92s0,0,0,0a3.82,3.82,0,0,0-3.76-3.88Z"/>
      <path d="M41.9,53.07a12.78,12.78,0,0,0-2.9-.45c-1.49,0-2.31.5-2.31,1.21,0,.9,1.1,1.21,1.71,1.41l1,.33c2.42.77,3.52,2.43,3.52,4.23,0,3.71-3.26,5-6.11,5a22.23,22.23,0,0,1-4-.4V60.95a14,14,0,0,0,3.52.55C38.18,61.5,39,61,39,60.12s-.75-1.17-1.67-1.47l-.8-.26c-2.08-.66-3.81-1.88-3.81-4.32,0-2.76,2.07-4.62,5.5-4.62a15.91,15.91,0,0,1,3.64.5Z"/>
    </g>
    <path d="M3.7,33.84a1.85,1.85,0,0,0-3.7,0v3.88a1.85,1.85,0,0,0,3.7,0Z"/>
    <path d="M13.86,28.76a1.85,1.85,0,0,0-3.7,0v9a1.85,1.85,0,0,0,3.7,0Z"/>
    <path d="M24,21.79a1.85,1.85,0,1,0-3.7,0V41.41a1.85,1.85,0,0,0,3.7,0h0Z"/>
    <path d="M34.19,28.76a1.85,1.85,0,1,0-3.7,0v9a1.85,1.85,0,1,0,3.7,0Z"/>
    <path d="M44.34,33.84a1.84,1.84,0,1,0-3.69,0v3.88a1.84,1.84,0,0,0,3.69,0Z"/>
    <path d="M54.51,28.76a1.84,1.84,0,0,0-3.69,0v9a1.84,1.84,0,0,0,3.69,0Z"/>
    <path d="M64.68,21.79a1.84,1.84,0,1,0-3.69,0V41.41a1.84,1.84,0,0,0,3.69,0Z"/>
    <path d="M74.85,28.76a1.86,1.86,0,0,0-3.71,0v9a1.86,1.86,0,0,0,3.71,0Z"/>
    <path d="M85,33.84a1.85,1.85,0,0,0-3.69,0v3.88a1.85,1.85,0,1,0,3.69,0Z"/>
  </g>
</svg>
